<?xml version="1.0"?>
<svg xmlns="http://www.w3.org/2000/svg" xmlns:xlink="http://www.w3.org/1999/xlink" xmlns:svgjs="http://svgjs.com/svgjs" version="1.1" width="512" height="512" x="0" y="0" viewBox="0 0 64 64" style="enable-background:new 0 0 512 512" xml:space="preserve" class=""><g><path xmlns="http://www.w3.org/2000/svg" d="m12 45 2 2-5 5 .793.793-7.5 7.5 1.414 1.414 7.5-7.5.793.793 5-5 2 2 2.293-2.293-7-7z" fill="#25a59a" data-original="#000000" style="" class=""/><path xmlns="http://www.w3.org/2000/svg" d="m53 2-3 3 3 3-4.293 4.293 3 3 4.293-4.293 3 3 3-3z" fill="#25a59a" data-original="#000000" style="" class=""/><path xmlns="http://www.w3.org/2000/svg" d="m7 22h3.532l4.087 4.905c.58.696 1.432 1.095 2.338 1.095 1.678 0 3.043-1.365 3.043-3.043v-2.957h1c2.757 0 5-2.243 5-5v-10c0-2.757-2.243-5-5-5h-14c-2.757 0-5 2.243-5 5v10c0 2.757 2.243 5 5 5zm1-13h3v-3h6v3h3v6h-3v3h-6v-3h-3z" fill="#25a59a" data-original="#000000" style="" class=""/><path xmlns="http://www.w3.org/2000/svg" d="m13 16h2v-3h3v-2h-3v-3h-2v3h-3v2h3z" fill="#25a59a" data-original="#000000" style="" class=""/><path xmlns="http://www.w3.org/2000/svg" d="m40 33.691-8.064 10.996c-1.267 1.727-1.936 3.772-1.936 5.914v.399c0 5.514 4.486 10 10 10s10-4.486 10-10v-.399c0-2.142-.669-4.187-1.936-5.914zm0 25.309v-2c.584 0 1.161-.084 1.713-.249l.573 1.916c-.739.221-1.508.333-2.286.333zm4.573-1.439-1.146-1.639c.584-.408 1.087-.911 1.495-1.495l1.64 1.146c-.543.776-1.212 1.445-1.989 1.988zm3.427-6.561c0 .778-.112 1.548-.333 2.286l-1.916-.572c.165-.554.249-1.13.249-1.714v-.399c0-1.285-.402-2.512-1.162-3.549l-4.645-6.333 1.613-1.184 4.645 6.334c1.013 1.383 1.549 3.019 1.549 4.732z" fill="#25a59a" data-original="#000000" style="" class=""/><path xmlns="http://www.w3.org/2000/svg" d="m40 30.309 1.386 1.89 8.217-8.216-9.586-9.586-1.603 1.603 2.293 2.293-1.414 1.414-2.293-2.293-1.586 1.586 4.293 4.293-1.414 1.414-4.293-4.293-1.586 1.586 2.293 2.293-1.414 1.414-2.293-2.293-1.586 1.586 4.293 4.293-1.414 1.414-4.293-4.293-1.586 1.586 2.293 2.293-1.414 1.414-2.293-2.293-1.586 1.586 4.293 4.293-1.414 1.414-4.293-4.293-1.586 1.586 2.293 2.293-1.414 1.414-2.293-2.293-1.586 1.586 4.293 4.293-1.414 1.414-4.293-4.293-1.586 1.586 9.586 9.586 6.987-6.987z" fill="#25a59a" data-original="#000000" style="" class=""/><path xmlns="http://www.w3.org/2000/svg" d="m45.692 12.542h3.633v7.9h-3.633z" transform="matrix(.707 -.707 .707 .707 2.254 38.424)" fill="#25a59a" data-original="#000000" style="" class=""/></g></svg>
